<svg xmlns="http://www.w3.org/2000/svg" xmlns:xlink="http://www.w3.org/1999/xlink" width="402" height="349" viewBox="0 0 402 349">
  <defs>
    <rect id="card-with-circle-a" width="338.617" height="213.098" x="9.022" y="12.443" rx="10"/>
    <rect id="card-with-circle-c" width="55.568" height="43.464" x="2.011" y="2.235" rx="2.304"/>
  </defs>
  <g fill="none" fill-rule="evenodd" transform="translate(-4)">
    <circle cx="231.5" cy="174.5" r="174.5" fill="#EBECF1"/>
    <g transform="translate(0 38)">
      <mask id="card-with-circle-b" fill="#fff">
        <use xlink:href="#card-with-circle-a"/>
      </mask>
      <use fill="#127A5D" transform="rotate(3 178.33 118.992)" xlink:href="#card-with-circle-a"/>
      <g mask="url(#card-with-circle-b)">
        <g transform="translate(47 63)">
          <mask id="card-with-circle-d" fill="#fff">
            <use xlink:href="#card-with-circle-c"/>
          </mask>
          <use fill="#FFF" transform="rotate(3 29.795 23.967)" xlink:href="#card-with-circle-c"/>
          <path stroke="#BDDCF5" stroke-linecap="square" stroke-width=".5" d="M1.89579481,17.2746899 L57.8803942,17.2746899" mask="url(#card-with-circle-d)" transform="rotate(3 30.048 16.773)"/>
          <path stroke="#BDDCF5" stroke-linecap="square" stroke-width=".5" d="M2.72927658,32.0280194 L56.2388469,32.0280194" mask="url(#card-with-circle-d)" transform="rotate(3 29.195 31.526)"/>
          <ellipse cx="29.795" cy="23.967" fill="#FFF" stroke="#BDDCF5" stroke-width=".576" mask="url(#card-with-circle-d)" rx="6.946" ry="10.431" transform="rotate(3 29.795 23.967)"/>
        </g>
      </g>
      <path fill="#FFF" d="M51.0596787,158.595897 L48.1102405,158.595897 L48.1102405,162.472301 L46.5933866,162.472301 L46.5933866,158.595897 L38.2717574,158.595897 L38.2717574,157.500391 L46.0877686,147.72511 L47.7731619,147.72511 L40.2310271,157.247582 L46.6355214,157.247582 L46.6355214,153.834661 L48.1102405,153.834661 L48.1102405,157.247582 L51.0596787,157.247582 L51.0596787,158.595897 Z M58.5596787,153.645054 C59.5287847,153.645054 60.3890289,153.827637 61.1404372,154.192807 C61.8918454,154.557977 62.478216,155.074124 62.8995664,155.741262 C63.3209168,156.4084 63.5315889,157.184375 63.5315889,158.069211 C63.5315889,158.968092 63.3138944,159.761624 62.878499,160.449829 C62.4431035,161.138035 61.8426882,161.668226 61.0772349,162.040419 C60.3117817,162.412612 59.4515375,162.598706 58.4964765,162.598706 C56.5442195,162.598706 55.048448,161.956156 54.0091169,160.671037 C52.9697859,159.385918 52.4501282,157.570628 52.4501282,155.22511 C52.4501282,153.581844 52.7310243,152.191408 53.2928248,151.053762 C53.8546254,149.916116 54.6411344,149.055872 55.6523754,148.473003 C56.6636164,147.890135 57.8433799,147.598706 59.1917012,147.598706 C60.6523827,147.598706 61.8181014,147.865557 62.6888922,148.399268 L62.0779372,149.621178 C61.3756865,149.157692 60.4206398,148.925953 59.2127686,148.925953 C57.583547,148.925953 56.3054699,149.442099 55.378499,150.474408 C54.451528,151.506717 53.9880495,153.005999 53.9880495,154.972301 C53.9880495,155.323427 54.0091167,155.723703 54.0512518,156.173144 C54.4164221,155.372578 54.9992815,154.751096 55.7998473,154.308678 C56.6004131,153.86626 57.5203477,153.645054 58.5596787,153.645054 Z M58.4332743,161.313593 C59.5006953,161.313593 60.3679619,161.022164 61.0351001,160.439296 C61.7022383,159.856428 62.0358023,159.080452 62.0358023,158.111346 C62.0358023,157.14224 61.7022383,156.369776 61.0351001,155.79393 C60.3679619,155.218085 59.4655833,154.930166 58.3279372,154.930166 C57.5835514,154.930166 56.9269569,155.070614 56.3581338,155.351515 C55.7893107,155.632415 55.3433882,156.018647 55.0203529,156.510223 C54.6973176,157.001798 54.5358023,157.549545 54.5358023,158.153481 C54.5358023,158.715282 54.686784,159.234939 54.9887518,159.71247 C55.2907196,160.19 55.7366421,160.576232 56.3265327,160.871178 C56.9164233,161.166123 57.6186634,161.313593 58.4332743,161.313593 Z M69.1565889,153.771459 C71.291431,153.771459 72.846893,154.154179 73.8230214,154.919633 C74.7991499,155.685086 75.2872068,156.756002 75.2872068,158.132414 C75.2872068,158.989159 75.0870684,159.754601 74.6867855,160.428762 C74.2865026,161.102923 73.6860872,161.633114 72.8855214,162.019352 C72.0849556,162.40559 71.1018194,162.598706 69.9360832,162.598706 C68.8827072,162.598706 67.8820149,162.426657 66.9339765,162.082554 C65.9859381,161.738451 65.2240075,161.278484 64.6481619,160.702638 L65.3855214,159.501796 C65.8770969,160.007416 66.5231579,160.418227 67.3237237,160.734239 C68.1242895,161.050252 68.9880449,161.208256 69.9150158,161.208256 C71.136932,161.208256 72.0814451,160.934383 72.7485832,160.386627 C73.4157214,159.838872 73.7492855,159.108542 73.7492855,158.195616 C73.7492855,157.184375 73.373587,156.418933 72.6221787,155.899268 C71.8707705,155.379602 70.603227,155.119773 68.8195102,155.119773 L65.6804653,155.119773 L66.4388922,147.72511 L74.5077125,147.72511 L74.5077125,149.073425 L67.7661394,149.073425 L67.2605214,153.771459 L69.1565889,153.771459 Z M87.611645,147.72511 L87.611645,148.799548 L81.4388922,162.472301 L79.7956338,162.472301 L85.8630495,149.073425 L78.2787799,149.073425 L78.2787799,151.833256 L76.7829934,151.833256 L76.7829934,147.72511 L87.611645,147.72511 Z M107.667825,158.595897 L104.718387,158.595897 L104.718387,162.472301 L103.201533,162.472301 L103.201533,158.595897 L94.8799035,158.595897 L94.8799035,157.500391 L102.695915,147.72511 L104.381308,147.72511 L96.8391731,157.247582 L103.243668,157.247582 L103.243668,153.834661 L104.718387,153.834661 L104.718387,157.247582 L107.667825,157.247582 L107.667825,158.595897 Z M112.934679,153.771459 C115.069521,153.771459 116.624983,154.154179 117.601111,154.919633 C118.57724,155.685086 119.065297,156.756002 119.065297,158.132414 C119.065297,158.989159 118.865158,159.754601 118.464875,160.428762 C118.064592,161.102923 117.464177,161.633114 116.663611,162.019352 C115.863046,162.40559 114.879909,162.598706 113.714173,162.598706 C112.660797,162.598706 111.660105,162.426657 110.712066,162.082554 C109.764028,161.738451 109.002097,161.278484 108.426252,160.702638 L109.163611,159.501796 C109.655187,160.007416 110.301248,160.418227 111.101814,160.734239 C111.902379,161.050252 112.766135,161.208256 113.693106,161.208256 C114.915022,161.208256 115.859535,160.934383 116.526673,160.386627 C117.193811,159.838872 117.527375,159.108542 117.527375,158.195616 C117.527375,157.184375 117.151677,156.418933 116.400269,155.899268 C115.64886,155.379602 114.381317,155.119773 112.5976,155.119773 L109.458555,155.119773 L110.216982,147.72511 L118.285802,147.72511 L118.285802,149.073425 L111.544229,149.073425 L111.038611,153.771459 L112.934679,153.771459 Z M127.091982,153.645054 C128.061088,153.645054 128.921332,153.827637 129.672741,154.192807 C130.424149,154.557977 131.010519,155.074124 131.43187,155.741262 C131.85322,156.4084 132.063892,157.184375 132.063892,158.069211 C132.063892,158.968092 131.846198,159.761624 131.410802,160.449829 C130.975407,161.138035 130.374992,161.668226 129.609538,162.040419 C128.844085,162.412612 127.983841,162.598706 127.02878,162.598706 C125.076523,162.598706 123.580751,161.956156 122.54142,160.671037 C121.502089,159.385918 120.982432,157.570628 120.982432,155.22511 C120.982432,153.581844 121.263328,152.191408 121.825128,151.053762 C122.386929,149.916116 123.173438,149.055872 124.184679,148.473003 C125.19592,147.890135 126.375683,147.598706 127.724005,147.598706 C129.184686,147.598706 130.350405,147.865557 131.221196,148.399268 L130.610241,149.621178 C129.90799,149.157692 128.952943,148.925953 127.745072,148.925953 C126.11585,148.925953 124.837773,149.442099 123.910802,150.474408 C122.983831,151.506717 122.520353,153.005999 122.520353,154.972301 C122.520353,155.323427 122.54142,155.723703 122.583555,156.173144 C122.948726,155.372578 123.531585,154.751096 124.332151,154.308678 C125.132716,153.86626 126.052651,153.645054 127.091982,153.645054 Z M126.965578,161.313593 C128.032999,161.313593 128.900265,161.022164 129.567403,160.439296 C130.234542,159.856428 130.568106,159.080452 130.568106,158.111346 C130.568106,157.14224 130.234542,156.369776 129.567403,155.79393 C128.900265,155.218085 127.997887,154.930166 126.860241,154.930166 C126.115855,154.930166 125.45926,155.070614 124.890437,155.351515 C124.321614,155.632415 123.875692,156.018647 123.552656,156.510223 C123.229621,157.001798 123.068106,157.549545 123.068106,158.153481 C123.068106,158.715282 123.219087,159.234939 123.521055,159.71247 C123.823023,160.19 124.268945,160.576232 124.858836,160.871178 C125.448727,161.166123 126.150967,161.313593 126.965578,161.313593 Z M144.219791,147.72511 L144.219791,148.799548 L138.047038,162.472301 L136.40378,162.472301 L142.471196,149.073425 L134.886926,149.073425 L134.886926,151.833256 L133.391139,151.833256 L133.391139,147.72511 L144.219791,147.72511 Z M157.618668,162.598706 C156.481021,162.598706 155.466284,162.296742 154.574426,161.692807 C153.682568,161.088871 152.98735,160.221605 152.488752,159.090981 C151.990154,157.960357 151.740859,156.629612 151.740859,155.098706 C151.740859,153.567799 151.990154,152.237054 152.488752,151.10643 C152.98735,149.975807 153.682568,149.10854 154.574426,148.504605 C155.466284,147.900669 156.481021,147.598706 157.618668,147.598706 C158.756314,147.598706 159.771051,147.900669 160.662909,148.504605 C161.554767,149.10854 162.253496,149.975807 162.759117,151.10643 C163.264737,152.237054 163.517544,153.567799 163.517544,155.098706 C163.517544,156.629612 163.264737,157.960357 162.759117,159.090981 C162.253496,160.221605 161.554767,161.088871 160.662909,161.692807 C159.771051,162.296742 158.756314,162.598706 157.618668,162.598706 Z M157.618668,161.208256 C158.475413,161.208256 159.230322,160.969495 159.883415,160.491964 C160.536508,160.014434 161.045632,159.319216 161.410802,158.40629 C161.775973,157.493364 161.958555,156.390847 161.958555,155.098706 C161.958555,153.806564 161.775973,152.704047 161.410802,151.791121 C161.045632,150.878196 160.536508,150.182978 159.883415,149.705447 C159.230322,149.227917 158.475413,148.989155 157.618668,148.989155 C156.761922,148.989155 156.007013,149.227917 155.35392,149.705447 C154.700827,150.182978 154.191703,150.878196 153.826533,151.791121 C153.461362,152.704047 153.27878,153.806564 153.27878,155.098706 C153.27878,156.390847 153.461362,157.493364 153.826533,158.40629 C154.191703,159.319216 154.700827,160.014434 155.35392,160.491964 C156.007013,160.969495 156.761922,161.208256 157.618668,161.208256 Z M171.565297,162.598706 C170.427651,162.598706 169.412914,162.296742 168.521055,161.692807 C167.629197,161.088871 166.933979,160.221605 166.435381,159.090981 C165.936783,157.960357 165.687488,156.629612 165.687488,155.098706 C165.687488,153.567799 165.936783,152.237054 166.435381,151.10643 C166.933979,149.975807 167.629197,149.10854 168.521055,148.504605 C169.412914,147.900669 170.427651,147.598706 171.565297,147.598706 C172.702943,147.598706 173.71768,147.900669 174.609538,148.504605 C175.501397,149.10854 176.200126,149.975807 176.705746,151.10643 C177.211367,152.237054 177.464173,153.567799 177.464173,155.098706 C177.464173,156.629612 177.211367,157.960357 176.705746,159.090981 C176.200126,160.221605 175.501397,161.088871 174.609538,161.692807 C173.71768,162.296742 172.702943,162.598706 171.565297,162.598706 Z M171.565297,161.208256 C172.422043,161.208256 173.176951,160.969495 173.830044,160.491964 C174.483137,160.014434 174.992261,159.319216 175.357432,158.40629 C175.722602,157.493364 175.905184,156.390847 175.905184,155.098706 C175.905184,153.806564 175.722602,152.704047 175.357432,151.791121 C174.992261,150.878196 174.483137,150.182978 173.830044,149.705447 C173.176951,149.227917 172.422043,148.989155 171.565297,148.989155 C170.708551,148.989155 169.953643,149.227917 169.30055,149.705447 C168.647456,150.182978 168.138332,150.878196 167.773162,151.791121 C167.407992,152.704047 167.225409,153.806564 167.225409,155.098706 C167.225409,156.390847 167.407992,157.493364 167.773162,158.40629 C168.138332,159.319216 168.647456,160.014434 169.30055,160.491964 C169.953643,160.969495 170.708551,161.208256 171.565297,161.208256 Z M184.648162,154.045335 C186.193113,154.129605 187.369366,154.547438 188.176954,155.298846 C188.984542,156.050254 189.38833,157.029879 189.38833,158.237751 C189.38833,159.080452 189.184681,159.828337 188.777375,160.48143 C188.37007,161.134524 187.766143,161.65067 186.965578,162.029886 C186.165012,162.409101 185.188898,162.598706 184.037207,162.598706 C182.969786,162.598706 181.962071,162.426657 181.014033,162.082554 C180.065994,161.738451 179.304064,161.278484 178.728218,160.702638 L179.465578,159.501796 C179.957153,160.007416 180.610236,160.418227 181.424847,160.734239 C182.239458,161.050252 183.110236,161.208256 184.037207,161.208256 C185.245078,161.208256 186.179057,160.944916 186.839173,160.418228 C187.499289,159.89154 187.829342,159.164722 187.829342,158.237751 C187.829342,157.324825 187.499289,156.60854 186.839173,156.088874 C186.179057,155.569209 185.181876,155.30938 183.8476,155.30938 L182.794229,155.30938 L182.794229,154.192807 L186.881308,149.073425 L179.339173,149.073425 L179.339173,147.72511 L188.81951,147.72511 L188.81951,148.799548 L184.648162,154.045335 Z M204.051252,158.595897 L201.101814,158.595897 L201.101814,162.472301 L199.58496,162.472301 L199.58496,158.595897 L191.26333,158.595897 L191.26333,157.500391 L199.079342,147.72511 L200.764735,147.72511 L193.2226,157.247582 L199.627094,157.247582 L199.627094,153.834661 L201.101814,153.834661 L201.101814,157.247582 L204.051252,157.247582 L204.051252,158.595897 Z M215.554061,147.598706 C217.506318,147.598706 219.002089,148.241255 220.04142,149.526374 C221.080751,150.811493 221.600409,152.626784 221.600409,154.972301 C221.600409,156.615568 221.319513,158.006003 220.757712,159.14365 C220.195912,160.281296 219.409403,161.14154 218.398162,161.724408 C217.386921,162.307276 216.207157,162.598706 214.858836,162.598706 C213.398155,162.598706 212.232436,162.331854 211.361645,161.798144 L211.9726,160.576234 C212.674851,161.039719 213.629897,161.271459 214.837769,161.271459 C216.46699,161.271459 217.745067,160.755312 218.672038,159.723003 C219.599009,158.690695 220.062488,157.191412 220.062488,155.22511 C220.062488,154.85994 220.041421,154.459663 219.999285,154.024268 C219.634115,154.824833 219.051256,155.446316 218.25069,155.888734 C217.450124,156.331152 216.53019,156.552357 215.490859,156.552357 C214.521753,156.552357 213.661508,156.369775 212.9101,156.004605 C212.158692,155.639434 211.572321,155.123288 211.150971,154.45615 C210.72962,153.789011 210.518948,153.013036 210.518948,152.1282 C210.518948,151.229319 210.736643,150.435788 211.172038,149.747582 C211.607434,149.059376 212.207849,148.529185 212.973302,148.156992 C213.738756,147.784799 214.599,147.598706 215.554061,147.598706 Z M215.7226,155.267245 C216.466986,155.267245 217.12358,155.126797 217.692403,154.845897 C218.261227,154.564996 218.707149,154.178764 219.030184,153.687189 C219.35322,153.195613 219.514735,152.647866 219.514735,152.04393 C219.514735,151.48213 219.363753,150.962472 219.061785,150.484942 C218.759818,150.007411 218.313895,149.621179 217.724005,149.326234 C217.134114,149.031289 216.431874,148.883818 215.617263,148.883818 C214.549842,148.883818 213.682575,149.175248 213.015437,149.758116 C212.348299,150.340984 212.014735,151.116959 212.014735,152.086065 C212.014735,153.055171 212.348299,153.827635 213.015437,154.403481 C213.682575,154.979327 214.584954,155.267245 215.7226,155.267245 Z M236.326533,158.595897 L233.377094,158.595897 L233.377094,162.472301 L231.860241,162.472301 L231.860241,158.595897 L223.538611,158.595897 L223.538611,157.500391 L231.354623,147.72511 L233.040016,147.72511 L225.497881,157.247582 L231.902375,157.247582 L231.902375,153.834661 L233.377094,153.834661 L233.377094,157.247582 L236.326533,157.247582 L236.326533,158.595897 Z M246.165016,154.74056 C247.091987,155.04955 247.804761,155.513028 248.303359,156.131009 C248.801957,156.74899 249.051252,157.493364 249.051252,158.364155 C249.051252,159.220901 248.819513,159.968787 248.356027,160.607835 C247.892542,161.246883 247.228925,161.738451 246.365156,162.082554 C245.501388,162.426657 244.486651,162.598706 243.320915,162.598706 C241.551243,162.598706 240.160807,162.219496 239.149566,161.461065 C238.138325,160.702635 237.632712,159.670341 237.632712,158.364155 C237.632712,157.479319 237.874985,156.731434 238.359538,156.120475 C238.844091,155.509517 239.549843,155.04955 240.476814,154.74056 C239.718383,154.445614 239.142546,154.020759 238.749285,153.465981 C238.356025,152.911203 238.159398,152.254608 238.159398,151.496178 C238.159398,150.302351 238.626388,149.354327 239.560381,148.652077 C240.494374,147.949826 241.747873,147.598706 243.320915,147.598706 C244.360246,147.598706 245.269647,147.75671 246.049145,148.072723 C246.828643,148.388735 247.436081,148.84168 247.871476,149.431571 C248.306872,150.021462 248.524566,150.709657 248.524566,151.496178 C248.524566,152.254608 248.320917,152.911203 247.913611,153.465981 C247.506306,154.020759 246.923447,154.445614 246.165016,154.74056 Z M239.676252,151.538312 C239.676252,152.352923 239.999282,152.998984 240.645353,153.476515 C241.291424,153.954045 242.183269,154.192807 243.320915,154.192807 C244.458561,154.192807 245.353917,153.954045 246.00701,153.476515 C246.660103,152.998984 246.986645,152.359946 246.986645,151.55938 C246.986645,150.730724 246.653081,150.077641 245.985943,149.60011 C245.318805,149.12258 244.430471,148.883818 243.320915,148.883818 C242.197314,148.883818 241.30898,149.12258 240.655887,149.60011 C240.002793,150.077641 239.676252,150.723702 239.676252,151.538312 Z M243.320915,161.313593 C244.627101,161.313593 245.64886,161.046742 246.386224,160.513032 C247.123587,159.979321 247.492263,159.256014 247.492263,158.343088 C247.492263,157.430162 247.123587,156.710366 246.386224,156.183678 C245.64886,155.65699 244.627101,155.39365 243.320915,155.39365 C242.028773,155.39365 241.014036,155.65699 240.276673,156.183678 C239.53931,156.710366 239.170634,157.430162 239.170634,158.343088 C239.170634,159.270059 239.535799,159.996877 240.266139,160.523565 C240.99648,161.050253 242.014728,161.313593 243.320915,161.313593 Z M255.034398,153.771459 C257.16924,153.771459 258.724702,154.154179 259.70083,154.919633 C260.676959,155.685086 261.165016,156.756002 261.165016,158.132414 C261.165016,158.989159 260.964877,159.754601 260.564594,160.428762 C260.164312,161.102923 259.563896,161.633114 258.76333,162.019352 C257.962765,162.40559 256.979628,162.598706 255.813892,162.598706 C254.760516,162.598706 253.759824,162.426657 252.811785,162.082554 C251.863747,161.738451 251.101816,161.278484 250.525971,160.702638 L251.26333,159.501796 C251.754906,160.007416 252.400967,160.418227 253.201533,160.734239 C254.002098,161.050252 254.865854,161.208256 255.792825,161.208256 C257.014741,161.208256 257.959254,160.934383 258.626392,160.386627 C259.29353,159.838872 259.627094,159.108542 259.627094,158.195616 C259.627094,157.184375 259.251396,156.418933 258.499988,155.899268 C257.748579,155.379602 256.481036,155.119773 254.697319,155.119773 L251.558274,155.119773 L252.316701,147.72511 L260.385521,147.72511 L260.385521,149.073425 L253.643948,149.073425 L253.13833,153.771459 L255.034398,153.771459 Z" mask="url(#card-with-circle-b)" transform="rotate(3 149.718 155.099)"/>
      <path fill="#FFF" d="M41.2584558,178.873136 L41.2584558,181.293136 L40.5284558,181.293136 L40.5284558,178.873136 L37.7284558,174.293136 L38.5184558,174.293136 L40.9184558,178.223136 L43.3184558,174.293136 L44.0584558,174.293136 L41.2584558,178.873136 Z M48.3017891,181.353136 C47.6084523,181.353136 46.9801253,181.198138 46.4167891,180.888136 C45.853453,180.578135 45.4134574,180.153139 45.0967891,179.613136 C44.7801209,179.073134 44.6217891,178.466473 44.6217891,177.793136 C44.6217891,177.1198 44.7801209,176.513139 45.0967891,175.973136 C45.4134574,175.433134 45.853453,175.008138 46.4167891,174.698136 C46.9801253,174.388135 47.6084523,174.233136 48.3017891,174.233136 C48.9951259,174.233136 49.6201197,174.386468 50.1767891,174.693136 C50.7334586,174.999805 51.1717875,175.4248 51.4917891,175.968136 C51.8117907,176.511472 51.9717891,177.1198 51.9717891,177.793136 C51.9717891,178.466473 51.8117907,179.0748 51.4917891,179.618136 C51.1717875,180.161472 50.7334586,180.586468 50.1767891,180.893136 C49.6201197,181.199805 48.9951259,181.353136 48.3017891,181.353136 Z M48.3017891,180.693136 C48.8551252,180.693136 49.3551202,180.568138 49.8017891,180.318136 C50.248458,180.068135 50.5984545,179.721472 50.8517891,179.278136 C51.1051237,178.834801 51.2317891,178.339806 51.2317891,177.793136 C51.2317891,177.246467 51.1051237,176.751472 50.8517891,176.308136 C50.5984545,175.864801 50.248458,175.518138 49.8017891,175.268136 C49.3551202,175.018135 48.8551252,174.893136 48.3017891,174.893136 C47.748453,174.893136 47.2467914,175.018135 46.7967891,175.268136 C46.3467869,175.518138 45.9934571,175.864801 45.7367891,176.308136 C45.4801212,176.751472 45.3517891,177.246467 45.3517891,177.793136 C45.3517891,178.339806 45.4801212,178.834801 45.7367891,179.278136 C45.9934571,179.721472 46.3467869,180.068135 46.7967891,180.318136 C47.2467914,180.568138 47.748453,180.693136 48.3017891,180.693136 Z M56.7851224,181.353136 C55.8784512,181.353136 55.1717916,181.093139 54.6651224,180.573136 C54.1584532,180.053134 53.9051224,179.296475 53.9051224,178.303136 L53.9051224,174.293136 L54.6451224,174.293136 L54.6451224,178.273136 C54.6451224,179.086474 54.8284539,179.693134 55.1951224,180.093136 C55.5617909,180.493138 56.0917856,180.693136 56.7851224,180.693136 C57.4851259,180.693136 58.0184539,180.493138 58.3851224,180.093136 C58.7517909,179.693134 58.9351224,179.086474 58.9351224,178.273136 L58.9351224,174.293136 L59.6551224,174.293136 L59.6551224,178.303136 C59.6551224,179.296475 59.4034583,180.053134 58.9001224,180.573136 C58.3967866,181.093139 57.6917936,181.353136 56.7851224,181.353136 Z M66.9984557,181.293136 L65.3984557,179.043136 C65.2184548,179.063136 65.03179,179.073136 64.8384557,179.073136 L62.9584557,179.073136 L62.9584557,181.293136 L62.2184557,181.293136 L62.2184557,174.293136 L64.8384557,174.293136 C65.7317935,174.293136 66.4317865,174.506468 66.9384557,174.933136 C67.4451249,175.359805 67.6984557,175.946466 67.6984557,176.693136 C67.6984557,177.239806 67.5601238,177.701468 67.2834557,178.078136 C67.0067877,178.454805 66.6117916,178.726469 66.0984557,178.893136 L67.8084557,181.293136 L66.9984557,181.293136 Z M64.8184557,178.443136 C65.5117925,178.443136 66.0417872,178.289805 66.4084557,177.983136 C66.7751242,177.676468 66.9584557,177.246472 66.9584557,176.693136 C66.9584557,176.126467 66.7751242,175.691471 66.4084557,175.388136 C66.0417872,175.084801 65.5117925,174.933136 64.8184557,174.933136 L62.9584557,174.933136 L62.9584557,178.443136 L64.8184557,178.443136 Z M78.5851223,174.293136 L78.5851223,181.293136 L77.9751223,181.293136 L73.4751223,175.613136 L73.4751223,181.293136 L72.7351223,181.293136 L72.7351223,174.293136 L73.3451223,174.293136 L77.8551223,179.973136 L77.8551223,174.293136 L78.5851223,174.293136 Z M85.5884556,179.423136 L81.6884556,179.423136 L80.8484556,181.293136 L80.0784556,181.293136 L83.2784556,174.293136 L84.0084556,174.293136 L87.2084556,181.293136 L86.4284556,181.293136 L85.5884556,179.423136 Z M85.3184556,178.823136 L83.6384556,175.063136 L81.9584556,178.823136 L85.3184556,178.823136 Z M95.9717889,174.293136 L95.9717889,181.293136 L95.2617889,181.293136 L95.2617889,175.693136 L92.5117889,180.403136 L92.1617889,180.403136 L89.4117889,175.723136 L89.4117889,181.293136 L88.7017889,181.293136 L88.7017889,174.293136 L89.3117889,174.293136 L92.3517889,179.483136 L95.3617889,174.293136 L95.9717889,174.293136 Z M103.535122,180.653136 L103.535122,181.293136 L98.5851222,181.293136 L98.5851222,174.293136 L103.385122,174.293136 L103.385122,174.933136 L99.3251222,174.933136 L99.3251222,177.423136 L102.945122,177.423136 L102.945122,178.053136 L99.3251222,178.053136 L99.3251222,180.653136 L103.535122,180.653136 Z M114.411789,174.293136 L114.411789,181.293136 L113.681789,181.293136 L113.681789,178.063136 L109.301789,178.063136 L109.301789,181.293136 L108.561789,181.293136 L108.561789,174.293136 L109.301789,174.293136 L109.301789,177.413136 L113.681789,177.413136 L113.681789,174.293136 L114.411789,174.293136 Z M121.975122,180.653136 L121.975122,181.293136 L117.025122,181.293136 L117.025122,174.293136 L121.825122,174.293136 L121.825122,174.933136 L117.765122,174.933136 L117.765122,177.423136 L121.385122,177.423136 L121.385122,178.053136 L117.765122,178.053136 L117.765122,180.653136 L121.975122,180.653136 Z M128.828455,181.293136 L127.228455,179.043136 C127.048455,179.063136 126.86179,179.073136 126.668455,179.073136 L124.788455,179.073136 L124.788455,181.293136 L124.048455,181.293136 L124.048455,174.293136 L126.668455,174.293136 C127.561793,174.293136 128.261786,174.506468 128.768455,174.933136 C129.275125,175.359805 129.528455,175.946466 129.528455,176.693136 C129.528455,177.239806 129.390123,177.701468 129.113455,178.078136 C128.836787,178.454805 128.441791,178.726469 127.928455,178.893136 L129.638455,181.293136 L128.828455,181.293136 Z M126.648455,178.443136 C127.341792,178.443136 127.871787,178.289805 128.238455,177.983136 C128.605124,177.676468 128.788455,177.246472 128.788455,176.693136 C128.788455,176.126467 128.605124,175.691471 128.238455,175.388136 C127.871787,175.084801 127.341792,174.933136 126.648455,174.933136 L124.788455,174.933136 L124.788455,178.443136 L126.648455,178.443136 Z M136.561789,180.653136 L136.561789,181.293136 L131.611789,181.293136 L131.611789,174.293136 L136.411789,174.293136 L136.411789,174.933136 L132.351789,174.933136 L132.351789,177.423136 L135.971789,177.423136 L135.971789,178.053136 L132.351789,178.053136 L132.351789,180.653136 L136.561789,180.653136 Z" mask="url(#card-with-circle-b)" opacity=".96" transform="rotate(3 87.145 177.793)"/>
    </g>
  </g>
</svg>
