<svg xmlns="http://www.w3.org/2000/svg" width="82" height="52" viewBox="0 0 82 52">
  <g fill="none" fill-rule="evenodd">
    <rect width="82" height="52" fill="#FFF" rx="2"/>
    <path fill="#007459" d="M17.795,30 L17.795,22.95 L15.05,28.2 L13.925,28.2 L11.18,22.95 L11.18,30 L9.11,30 L9.11,19.35 L11.33,19.35 L14.48,25.41 L17.66,19.35 L19.865,19.35 L19.865,30 L17.795,30 Z M21.64,30 L21.64,22.14 L23.65,22.14 L23.65,30 L21.64,30 Z M21.64,21.045 L21.64,19.05 L23.65,19.05 L23.65,21.045 L21.64,21.045 Z M28.185,30.15 C27.5249967,30.15 26.8800032,30.045001 26.25,29.835 C25.6199969,29.624999 25.0800023,29.325002 24.63,28.935 L25.38,27.675 C25.8600024,28.0150017 26.3274977,28.2724991 26.7825,28.4475 C27.2375023,28.6225009 27.6899978,28.71 28.14,28.71 C28.540002,28.71 28.8549989,28.6350008 29.085,28.485 C29.3150012,28.3349993 29.43,28.1200014 29.43,27.84 C29.43,27.5599986 29.2950014,27.3550007 29.025,27.225 C28.7549987,27.0949994 28.3150031,26.9450008 27.705,26.775 C27.1949975,26.6349993 26.7600018,26.5000007 26.4,26.37 C26.0399982,26.2399994 25.7500011,26.0925008 25.53,25.9275 C25.3099989,25.7624992 25.1500005,25.5725011 25.05,25.3575 C24.9499995,25.1424989 24.9,24.8850015 24.9,24.585 C24.9,24.184998 24.9774992,23.8250016 25.1325,23.505 C25.2875008,23.1849984 25.5049986,22.9125011 25.785,22.6875 C26.0650014,22.4624989 26.3924981,22.2900006 26.7675,22.17 C27.1425019,22.0499994 27.5499978,21.99 27.99,21.99 C28.580003,21.99 29.1324974,22.0749991 29.6475,22.245 C30.1625026,22.4150009 30.6349979,22.6899981 31.065,23.07 L30.255,24.285 C29.854998,23.9849985 29.4675019,23.7650007 29.0925,23.625 C28.7174981,23.4849993 28.3450019,23.415 27.975,23.415 C27.6349983,23.415 27.3500012,23.4849993 27.12,23.625 C26.8899989,23.7650007 26.775,23.9899985 26.775,24.3 C26.775,24.4400007 26.8024997,24.5549995 26.8575,24.645 C26.9125003,24.7350005 26.9999994,24.8149997 27.12,24.885 C27.2400006,24.9550003 27.397499,25.0224997 27.5925,25.0875 C27.787501,25.1525003 28.0299986,25.2199996 28.32,25.29 C28.8600027,25.4300007 29.3224981,25.5699993 29.7075,25.71 C30.0925019,25.8500007 30.4074988,26.0099991 30.6525,26.19 C30.8975012,26.3700009 31.0774994,26.5774988 31.1925,26.8125 C31.3075006,27.0475012 31.365,27.3299983 31.365,27.66 C31.365,28.4300038 31.0800029,29.0374978 30.51,29.4825 C29.9399972,29.9275022 29.1650049,30.15 28.185,30.15 Z M35.39,30.15 C34.7299967,30.15 34.0850032,30.045001 33.455,29.835 C32.8249969,29.624999 32.2850023,29.325002 31.835,28.935 L32.585,27.675 C33.0650024,28.0150017 33.5324977,28.2724991 33.9875,28.4475 C34.4425023,28.6225009 34.8949978,28.71 35.345,28.71 C35.745002,28.71 36.0599989,28.6350008 36.29,28.485 C36.5200012,28.3349993 36.635,28.1200014 36.635,27.84 C36.635,27.5599986 36.5000014,27.3550007 36.23,27.225 C35.9599987,27.0949994 35.5200031,26.9450008 34.91,26.775 C34.3999975,26.6349993 33.9650018,26.5000007 33.605,26.37 C33.2449982,26.2399994 32.9550011,26.0925008 32.735,25.9275 C32.5149989,25.7624992 32.3550005,25.5725011 32.255,25.3575 C32.1549995,25.1424989 32.105,24.8850015 32.105,24.585 C32.105,24.184998 32.1824992,23.8250016 32.3375,23.505 C32.4925008,23.1849984 32.7099986,22.9125011 32.99,22.6875 C33.2700014,22.4624989 33.5974981,22.2900006 33.9725,22.17 C34.3475019,22.0499994 34.7549978,21.99 35.195,21.99 C35.785003,21.99 36.3374974,22.0749991 36.8525,22.245 C37.3675026,22.4150009 37.8399979,22.6899981 38.27,23.07 L37.46,24.285 C37.059998,23.9849985 36.6725019,23.7650007 36.2975,23.625 C35.9224981,23.4849993 35.5500019,23.415 35.18,23.415 C34.8399983,23.415 34.5550012,23.4849993 34.325,23.625 C34.0949989,23.7650007 33.98,23.9899985 33.98,24.3 C33.98,24.4400007 34.0074997,24.5549995 34.0625,24.645 C34.1175003,24.7350005 34.2049994,24.8149997 34.325,24.885 C34.4450006,24.9550003 34.602499,25.0224997 34.7975,25.0875 C34.992501,25.1525003 35.2349986,25.2199996 35.525,25.29 C36.0650027,25.4300007 36.5274981,25.5699993 36.9125,25.71 C37.2975019,25.8500007 37.6124988,26.0099991 37.8575,26.19 C38.1025012,26.3700009 38.2824994,26.5774988 38.3975,26.8125 C38.5125006,27.0475012 38.57,27.3299983 38.57,27.66 C38.57,28.4300038 38.2850029,29.0374978 37.715,29.4825 C37.1449972,29.9275022 36.3700049,30.15 35.39,30.15 Z M39.625,30 L39.625,22.14 L41.635,22.14 L41.635,30 L39.625,30 Z M39.625,21.045 L39.625,19.05 L41.635,19.05 L41.635,21.045 L39.625,21.045 Z M46.83,30.15 C46.1899968,30.15 45.6150026,30.0400011 45.105,29.82 C44.5949975,29.5999989 44.1625018,29.3025019 43.8075,28.9275 C43.4524982,28.5524981 43.180001,28.1200025 42.99,27.63 C42.7999991,27.1399975 42.705,26.6250027 42.705,26.085 C42.705,25.5349973 42.7999991,25.0150024 42.99,24.525 C43.180001,24.0349976 43.4524982,23.6025019 43.8075,23.2275 C44.1625018,22.8524981 44.5949975,22.5550011 45.105,22.335 C45.6150026,22.1149989 46.1899968,22.005 46.83,22.005 C47.4700032,22.005 48.0424975,22.1149989 48.5475,22.335 C49.0525025,22.5550011 49.4824982,22.8524981 49.8375,23.2275 C50.1925018,23.6025019 50.4649991,24.0349976 50.655,24.525 C50.845001,25.0150024 50.94,25.5349973 50.94,26.085 C50.94,26.6250027 50.845001,27.1399975 50.655,27.63 C50.4649991,28.1200025 50.1950018,28.5524981 49.845,28.9275 C49.4949983,29.3025019 49.0650026,29.5999989 48.555,29.82 C48.0449975,30.0400011 47.4700032,30.15 46.83,30.15 Z M44.775,26.085 C44.775,26.4350017 44.8274995,26.7524986 44.9325,27.0375 C45.0375005,27.3225014 45.1824991,27.569999 45.3675,27.78 C45.5525009,27.990001 45.7699988,28.1524994 46.02,28.2675 C46.2700013,28.3825006 46.5399986,28.44 46.83,28.44 C47.1200015,28.44 47.3899988,28.3825006 47.64,28.2675 C47.8900013,28.1524994 48.1074991,27.990001 48.2925,27.78 C48.4775009,27.569999 48.6224995,27.3200015 48.7275,27.03 C48.8325005,26.7399985 48.885,26.4200017 48.885,26.07 C48.885,25.7299983 48.8325005,25.4150014 48.7275,25.125 C48.6224995,24.8349986 48.4775009,24.5850011 48.2925,24.375 C48.1074991,24.1649989 47.8900013,24.0025006 47.64,23.8875 C47.3899988,23.7724994 47.1200015,23.715 46.83,23.715 C46.5399986,23.715 46.2700013,23.7749994 46.02,23.895 C45.7699988,24.0150006 45.5525009,24.179999 45.3675,24.39 C45.1824991,24.6000011 45.0375005,24.8499986 44.9325,25.14 C44.8274995,25.4300015 44.775,25.7449983 44.775,26.085 Z M59.345,30 L57.335,30 L57.335,25.59 C57.335,24.9599968 57.2250011,24.5000015 57.005,24.21 C56.7849989,23.9199986 56.480002,23.775 56.09,23.775 C55.889999,23.775 55.6850011,23.8149996 55.475,23.895 C55.264999,23.9750004 55.0675009,24.0874993 54.8825,24.2325 C54.6974991,24.3775007 54.5300008,24.549999 54.38,24.75 C54.2299993,24.950001 54.1200004,25.1699988 54.05,25.41 L54.05,30 L52.04,30 L52.04,22.14 L53.855,22.14 L53.855,23.595 C54.1450015,23.0949975 54.5649973,22.7050014 55.115,22.425 C55.6650028,22.1449986 56.2849966,22.005 56.975,22.005 C57.4650025,22.005 57.8649985,22.0949991 58.175,22.275 C58.4850016,22.4550009 58.7249992,22.6899985 58.895,22.98 C59.0650009,23.2700014 59.1824997,23.5999981 59.2475,23.97 C59.3125003,24.3400019 59.345,24.7149981 59.345,25.095 L59.345,30 Z M9.11,43 L9.11,32.35 L11.18,32.35 L11.18,41.185 L16.61,41.185 L16.61,43 L9.11,43 Z M19.57,43.15 C19.1899981,43.15 18.8350017,43.0875006 18.505,42.9625 C18.1749984,42.8374994 17.8900012,42.6625011 17.65,42.4375 C17.4099988,42.2124989 17.2225007,41.9500015 17.0875,41.65 C16.9524993,41.3499985 16.885,41.0200018 16.885,40.66 C16.885,40.2899981 16.9674992,39.9475016 17.1325,39.6325 C17.2975008,39.3174984 17.5274985,39.0500011 17.8225,38.83 C18.1175015,38.6099989 18.469998,38.4375006 18.88,38.3125 C19.2900021,38.1874994 19.7399976,38.125 20.23,38.125 C20.5800018,38.125 20.9224983,38.1549997 21.2575,38.215 C21.5925017,38.2750003 21.8899987,38.3599994 22.15,38.47 L22.15,38.02 C22.15,37.4999974 22.0025015,37.1000014 21.7075,36.82 C21.4124985,36.5399986 20.9750029,36.4 20.395,36.4 C19.9749979,36.4 19.565002,36.4749992 19.165,36.625 C18.764998,36.7750008 18.3550021,36.9949985 17.935,37.285 L17.32,36.01 C18.3300051,35.3399966 19.4199942,35.005 20.59,35.005 C21.7200057,35.005 22.5974969,35.2824972 23.2225,35.8375 C23.8475031,36.3925028 24.16,37.1949947 24.16,38.245 L24.16,40.69 C24.16,40.9000011 24.1974996,41.0499995 24.2725,41.14 C24.3475004,41.2300004 24.4699992,41.2799999 24.64,41.29 L24.64,43 C24.2999983,43.0700003 24.0050013,43.105 23.755,43.105 C23.3749981,43.105 23.082501,43.0200008 22.8775,42.85 C22.672499,42.6799992 22.5450003,42.4550014 22.495,42.175 L22.45,41.74 C22.0999983,42.2000023 21.6750025,42.5499988 21.175,42.79 C20.6749975,43.0300012 20.1400029,43.15 19.57,43.15 Z M20.14,41.68 C20.4800017,41.68 20.8024985,41.6200006 21.1075,41.5 C21.4125015,41.3799994 21.6499992,41.220001 21.82,41.02 C22.0400011,40.8499992 22.15,40.6600011 22.15,40.45 L22.15,39.55 C21.9099988,39.4599996 21.6500014,39.3875003 21.37,39.3325 C21.0899986,39.2774997 20.8200013,39.25 20.56,39.25 C20.0399974,39.25 19.6150017,39.3674988 19.285,39.6025 C18.9549984,39.8375012 18.79,40.1349982 18.79,40.495 C18.79,40.8350017 18.9199987,41.1174989 19.18,41.3425 C19.4400013,41.5675011 19.7599981,41.68 20.14,41.68 Z M33.09,43 L31.08,43 L31.08,38.59 C31.08,37.9599968 30.9700011,37.5000015 30.75,37.21 C30.5299989,36.9199986 30.225002,36.775 29.835,36.775 C29.634999,36.775 29.4300011,36.8149996 29.22,36.895 C29.009999,36.9750004 28.8125009,37.0874993 28.6275,37.2325 C28.4424991,37.3775007 28.2750008,37.549999 28.125,37.75 C27.9749993,37.950001 27.8650004,38.1699988 27.795,38.41 L27.795,43 L25.785,43 L25.785,35.14 L27.6,35.14 L27.6,36.595 C27.8900015,36.0949975 28.3099973,35.7050014 28.86,35.425 C29.4100028,35.1449986 30.0299966,35.005 30.72,35.005 C31.2100025,35.005 31.6099985,35.0949991 31.92,35.275 C32.2300016,35.4550009 32.4699992,35.6899985 32.64,35.98 C32.8100009,36.2700014 32.9274997,36.5999981 32.9925,36.97 C33.0575003,37.3400019 33.09,37.7149981 33.09,38.095 L33.09,43 Z M38.24,43.15 C37.6099969,43.15 37.0400026,43.0425011 36.53,42.8275 C36.0199975,42.6124989 35.5850018,42.3200018 35.225,41.95 C34.8649982,41.5799981 34.587501,41.1500024 34.3925,40.66 C34.197499,40.1699976 34.1,39.6550027 34.1,39.115 C34.1,38.5549972 34.1949991,38.0275025 34.385,37.5325 C34.575001,37.0374975 34.8499982,36.6025019 35.21,36.2275 C35.5700018,35.8524981 36.0074974,35.5550011 36.5225,35.335 C37.0375026,35.1149989 37.6149968,35.005 38.255,35.005 C38.8950032,35.005 39.4674975,35.1149989 39.9725,35.335 C40.4775025,35.5550011 40.9074982,35.8499981 41.2625,36.22 C41.6175018,36.5900019 41.8874991,37.0199975 42.0725,37.51 C42.2575009,38.0000025 42.35,38.5099973 42.35,39.04 C42.35,39.1700007 42.3475,39.2949994 42.3425,39.415 C42.3375,39.5350006 42.3250001,39.6349996 42.305,39.715 L36.23,39.715 C36.2600002,40.0250016 36.3349994,40.2999988 36.455,40.54 C36.5750006,40.7800012 36.7299991,40.9849992 36.92,41.155 C37.110001,41.3250008 37.3249988,41.4549996 37.565,41.545 C37.8050012,41.6350005 38.0549987,41.68 38.315,41.68 C38.715002,41.68 39.0924982,41.582501 39.4475,41.3875 C39.8025018,41.192499 40.0449994,40.9350016 40.175,40.615 L41.9,41.095 C41.6099986,41.695003 41.1475032,42.1874981 40.5125,42.5725 C39.8774968,42.9575019 39.1200044,43.15 38.24,43.15 Z M40.28,38.41 C40.2299998,37.819997 40.0125019,37.3475018 39.6275,36.9925 C39.2424981,36.6374982 38.7750028,36.46 38.225,36.46 C37.9549987,36.46 37.7025012,36.5074995 37.4675,36.6025 C37.2324988,36.6975005 37.0250009,36.8299991 36.845,37 C36.6649991,37.1700009 36.5175006,37.3749988 36.4025,37.615 C36.2874994,37.8550012 36.2200001,38.1199985 36.2,38.41 L40.28,38.41 Z"/>
  </g>
</svg>
