<svg xmlns="http://www.w3.org/2000/svg" width="217" height="137" viewBox="0 0 217 137">
  <g fill="none" fill-rule="evenodd">
    <rect width="217" height="137" fill="#007459" rx="6"/>
    <path fill="#FFF" d="M42.202,85 L42.202,69.02 L35.98,80.92 L33.43,80.92 L27.208,69.02 L27.208,85 L22.516,85 L22.516,60.86 L27.548,60.86 L34.688,74.596 L41.896,60.86 L46.894,60.86 L46.894,85 L42.202,85 Z M50.984,85 L50.984,67.184 L55.54,67.184 L55.54,85 L50.984,85 Z M50.984,64.702 L50.984,60.18 L55.54,60.18 L55.54,64.702 L50.984,64.702 Z M65.886,85.34 C64.3899925,85.34 62.9280071,85.1020024 61.5,84.626 C60.0719929,84.1499976 58.8480051,83.4700044 57.828,82.586 L59.528,79.73 C60.6160054,80.5006705 61.6756615,81.0843313 62.707,81.481 C63.7383385,81.8776687 64.7639949,82.076 65.784,82.076 C66.6906712,82.076 67.4046641,81.9060017 67.926,81.566 C68.4473359,81.2259983 68.708,80.7386698 68.708,80.104 C68.708,79.4693302 68.4020031,79.0046681 67.79,78.71 C67.1779969,78.4153319 66.1806736,78.0753353 64.798,77.69 C63.6419942,77.3726651 62.6560041,77.0666681 61.84,76.772 C61.0239959,76.4773319 60.3666692,76.1430019 59.868,75.769 C59.3693308,75.3949981 59.0066678,74.9643358 58.78,74.477 C58.5533322,73.9896642 58.44,73.4060034 58.44,72.726 C58.44,71.8193288 58.6156649,71.003337 58.967,70.278 C59.3183351,69.552663 59.8113302,68.9350026 60.446,68.425 C61.0806698,67.9149974 61.8229958,67.5240014 62.673,67.252 C63.5230042,66.9799986 64.4466617,66.844 65.444,66.844 C66.78134,66.844 68.0336608,67.0366647 69.201,67.422 C70.3683392,67.8073353 71.4393285,68.4306624 72.414,69.292 L70.578,72.046 C69.6713288,71.3659966 68.7930042,70.8673349 67.943,70.55 C67.0929958,70.2326651 66.2486709,70.074 65.41,70.074 C64.6393295,70.074 63.9933359,70.2326651 63.472,70.55 C62.9506641,70.8673349 62.69,71.3773298 62.69,72.08 C62.69,72.3973349 62.7523327,72.657999 62.877,72.862 C63.0016673,73.066001 63.1999986,73.2473325 63.472,73.406 C63.7440014,73.5646675 64.1009978,73.7176659 64.543,73.865 C64.9850022,74.0123341 65.5346634,74.1653325 66.192,74.324 C67.4160061,74.6413349 68.464329,74.9586651 69.337,75.276 C70.209671,75.5933349 70.9236639,75.955998 71.479,76.364 C72.0343361,76.772002 72.442332,77.2423307 72.703,77.775 C72.963668,78.3076693 73.094,78.9479963 73.094,79.696 C73.094,81.4413421 72.4480065,82.8183283 71.156,83.827 C69.8639935,84.8356717 68.1073444,85.34 65.886,85.34 Z M82.284,85.34 C80.7879925,85.34 79.3260071,85.1020024 77.898,84.626 C76.4699929,84.1499976 75.2460051,83.4700044 74.226,82.586 L75.926,79.73 C77.0140054,80.5006705 78.0736615,81.0843313 79.105,81.481 C80.1363385,81.8776687 81.1619949,82.076 82.182,82.076 C83.0886712,82.076 83.8026641,81.9060017 84.324,81.566 C84.8453359,81.2259983 85.106,80.7386698 85.106,80.104 C85.106,79.4693302 84.8000031,79.0046681 84.188,78.71 C83.5759969,78.4153319 82.5786736,78.0753353 81.196,77.69 C80.0399942,77.3726651 79.0540041,77.0666681 78.238,76.772 C77.4219959,76.4773319 76.7646692,76.1430019 76.266,75.769 C75.7673308,75.3949981 75.4046678,74.9643358 75.178,74.477 C74.9513322,73.9896642 74.838,73.4060034 74.838,72.726 C74.838,71.8193288 75.0136649,71.003337 75.365,70.278 C75.7163351,69.552663 76.2093302,68.9350026 76.844,68.425 C77.4786698,67.9149974 78.2209957,67.5240014 79.071,67.252 C79.9210042,66.9799986 80.8446617,66.844 81.842,66.844 C83.17934,66.844 84.4316608,67.0366647 85.599,67.422 C86.7663392,67.8073353 87.8373285,68.4306624 88.812,69.292 L86.976,72.046 C86.0693288,71.3659966 85.1910043,70.8673349 84.341,70.55 C83.4909957,70.2326651 82.6466709,70.074 81.808,70.074 C81.0373295,70.074 80.3913359,70.2326651 79.87,70.55 C79.3486641,70.8673349 79.088,71.3773298 79.088,72.08 C79.088,72.3973349 79.1503327,72.657999 79.275,72.862 C79.3996673,73.066001 79.5979986,73.2473325 79.87,73.406 C80.1420014,73.5646675 80.4989978,73.7176659 80.941,73.865 C81.3830022,74.0123341 81.9326634,74.1653325 82.59,74.324 C83.8140061,74.6413349 84.862329,74.9586651 85.735,75.276 C86.607671,75.5933349 87.3216639,75.955998 87.877,76.364 C88.4323361,76.772002 88.840332,77.2423307 89.101,77.775 C89.361668,78.3076693 89.492,78.9479963 89.492,79.696 C89.492,81.4413421 88.8460065,82.8183283 87.554,83.827 C86.2619935,84.8356717 84.5053444,85.34 82.284,85.34 Z M91.95,85 L91.95,67.184 L96.506,67.184 L96.506,85 L91.95,85 Z M91.95,64.702 L91.95,60.18 L96.506,60.18 L96.506,64.702 L91.95,64.702 Z M108.348,85.34 C106.897326,85.34 105.594006,85.0906692 104.438,84.592 C103.281994,84.0933308 102.301671,83.4190042 101.497,82.569 C100.692329,81.7189957 100.074669,80.7386722 99.644,79.628 C99.2133312,78.5173278 98.998,77.3500061 98.998,76.126 C98.998,74.8793271 99.2133312,73.7006722 99.644,72.59 C100.074669,71.4793278 100.692329,70.4990042 101.497,69.649 C102.301671,68.7989958 103.281994,68.1246692 104.438,67.626 C105.594006,67.1273308 106.897326,66.878 108.348,66.878 C109.798674,66.878 111.096328,67.1273308 112.241,67.626 C113.385672,68.1246692 114.360329,68.7989958 115.165,69.649 C115.969671,70.4990042 116.587331,71.4793278 117.018,72.59 C117.448669,73.7006722 117.664,74.8793271 117.664,76.126 C117.664,77.3500061 117.448669,78.5173278 117.018,79.628 C116.587331,80.7386722 115.975337,81.7189957 115.182,82.569 C114.388663,83.4190042 113.414006,84.0933308 112.258,84.592 C111.101994,85.0906692 109.798674,85.34 108.348,85.34 Z M103.69,76.126 C103.69,76.9193373 103.808999,77.6389968 104.047,78.285 C104.285001,78.9310032 104.613665,79.4919976 105.033,79.968 C105.452335,80.4440024 105.94533,80.812332 106.512,81.073 C107.078669,81.333668 107.690663,81.464 108.348,81.464 C109.005337,81.464 109.61733,81.333668 110.184,81.073 C110.750669,80.812332 111.243665,80.4440024 111.663,79.968 C112.082335,79.4919976 112.410999,78.9253366 112.649,78.268 C112.887001,77.6106634 113.006,76.8853373 113.006,76.092 C113.006,75.3213295 112.887001,74.6073366 112.649,73.95 C112.410999,73.2926634 112.082335,72.7260024 111.663,72.25 C111.243665,71.7739976 110.750669,71.405668 110.184,71.145 C109.61733,70.884332 109.005337,70.754 108.348,70.754 C107.690663,70.754 107.078669,70.8899986 106.512,71.162 C105.94533,71.4340014 105.452335,71.8079976 105.033,72.284 C104.613665,72.7600024 104.285001,73.3266634 104.047,73.984 C103.808999,74.6413366 103.69,75.3553295 103.69,76.126 Z M136.782,85 L132.226,85 L132.226,75.004 C132.226,73.5759929 131.976669,72.5333366 131.478,71.876 C130.979331,71.2186634 130.288004,70.89 129.404,70.89 C128.950664,70.89 128.486002,70.9806658 128.01,71.162 C127.533998,71.3433342 127.086335,71.5983317 126.667,71.927 C126.247665,72.2556683 125.868002,72.6466644 125.528,73.1 C125.187998,73.5533356 124.938667,74.0519973 124.78,74.596 L124.78,85 L120.224,85 L120.224,67.184 L124.338,67.184 L124.338,70.482 C124.995337,69.348661 125.947327,68.4646698 127.194,67.83 C128.440673,67.1953302 129.845992,66.878 131.41,66.878 C132.520672,66.878 133.42733,67.081998 134.13,67.49 C134.83267,67.898002 135.376665,68.4306634 135.762,69.088 C136.147335,69.7453366 136.413666,70.4933291 136.561,71.332 C136.708334,72.1706709 136.782,73.0206624 136.782,73.882 L136.782,85 Z M22.516,115 L22.516,90.86 L27.208,90.86 L27.208,110.886 L39.516,110.886 L39.516,115 L22.516,115 Z M46.292,115.34 C45.4306624,115.34 44.6260037,115.198335 43.878,114.915 C43.1299963,114.631665 42.4840027,114.235003 41.94,113.725 C41.3959973,113.214997 40.9710015,112.620003 40.665,111.94 C40.3589985,111.259997 40.206,110.512004 40.206,109.696 C40.206,108.857329 40.3929981,108.081004 40.767,107.367 C41.1410019,106.652996 41.66233,106.046669 42.331,105.548 C42.99967,105.049331 43.798662,104.658335 44.728,104.375 C45.657338,104.091665 46.6773278,103.95 47.788,103.95 C48.5813373,103.95 49.3576629,104.017999 50.117,104.154 C50.8763371,104.290001 51.5506637,104.482665 52.14,104.732 L52.14,103.712 C52.14,102.533327 51.80567,101.62667 51.137,100.992 C50.46833,100.35733 49.4766732,100.04 48.162,100.04 C47.2099952,100.04 46.2806712,100.209998 45.374,100.55 C44.4673288,100.890002 43.5380048,101.388663 42.586,102.046 L41.192,99.156 C43.4813448,97.6373257 45.9519867,96.878 48.604,96.878 C51.1653461,96.878 53.1543262,97.5069937 54.571,98.765 C55.9876737,100.023006 56.696,101.841988 56.696,104.222 L56.696,109.764 C56.696,110.240002 56.7809992,110.579999 56.951,110.784 C57.1210008,110.988001 57.3986647,111.101333 57.784,111.124 L57.784,115 C57.0133295,115.158667 56.3446695,115.238 55.778,115.238 C54.9166624,115.238 54.253669,115.045335 53.789,114.66 C53.324331,114.274665 53.0353339,113.76467 52.922,113.13 L52.82,112.144 C52.0266627,113.186672 51.063339,113.979997 49.93,114.524 C48.796661,115.068003 47.5840065,115.34 46.292,115.34 Z M47.584,112.008 C48.3546705,112.008 49.0856632,111.872001 49.777,111.6 C50.4683368,111.327999 51.0066647,110.965336 51.392,110.512 C51.8906692,110.126665 52.14,109.696002 52.14,109.22 L52.14,107.18 C51.5959973,106.975999 51.0066698,106.811667 50.372,106.687 C49.7373302,106.562333 49.1253363,106.5 48.536,106.5 C47.3573274,106.5 46.3940037,106.766331 45.646,107.299 C44.8979963,107.831669 44.524,108.505996 44.524,109.322 C44.524,110.092671 44.8186637,110.732997 45.408,111.243 C45.9973363,111.753003 46.7226624,112.008 47.584,112.008 Z M77.004,115 L72.448,115 L72.448,105.004 C72.448,103.575993 72.1986692,102.533337 71.7,101.876 C71.2013308,101.218663 70.5100044,100.89 69.626,100.89 C69.1726644,100.89 68.7080024,100.980666 68.232,101.162 C67.7559976,101.343334 67.3083354,101.598332 66.889,101.927 C66.4696646,102.255668 66.0900017,102.646664 65.75,103.1 C65.4099983,103.553336 65.1606675,104.051997 65.002,104.596 L65.002,115 L60.446,115 L60.446,97.184 L64.56,97.184 L64.56,100.482 C65.2173366,99.348661 66.1693271,98.4646698 67.416,97.83 C68.6626729,97.1953302 70.0679922,96.878 71.632,96.878 C72.7426722,96.878 73.6493298,97.081998 74.352,97.49 C75.0546702,97.898002 75.5986647,98.4306634 75.984,99.088 C76.3693353,99.7453366 76.6356659,100.493329 76.783,101.332 C76.9303341,102.170671 77.004,103.020662 77.004,103.882 L77.004,115 Z M88.744,115.34 C87.3159929,115.34 86.0240058,115.096336 84.868,114.609 C83.7119942,114.121664 82.7260041,113.458671 81.91,112.62 C81.0939959,111.781329 80.4650022,110.806672 80.023,109.696 C79.5809978,108.585328 79.36,107.418006 79.36,106.194 C79.36,104.92466 79.5753312,103.729006 80.006,102.607 C80.4366688,101.484994 81.0599959,100.499004 81.876,99.649 C82.6920041,98.7989958 83.6836608,98.1246692 84.851,97.626 C86.0183392,97.1273308 87.3273261,96.878 88.778,96.878 C90.2286739,96.878 91.5263276,97.1273308 92.671,97.626 C93.8156724,98.1246692 94.7903293,98.7933291 95.595,99.632 C96.3996707,100.470671 97.0116646,101.445328 97.431,102.556 C97.8503354,103.666672 98.06,104.822661 98.06,106.024 C98.06,106.318668 98.0543334,106.601999 98.043,106.874 C98.0316666,107.146001 98.0033336,107.372666 97.958,107.554 L84.188,107.554 C84.2560003,108.25667 84.4259986,108.879997 84.698,109.424 C84.9700014,109.968003 85.3213312,110.432665 85.752,110.818 C86.1826688,111.203335 86.6699973,111.497999 87.214,111.702 C87.7580027,111.906001 88.3246637,112.008 88.914,112.008 C89.8206712,112.008 90.6763293,111.787002 91.481,111.345 C92.2856707,110.902998 92.8353319,110.319337 93.13,109.594 L97.04,110.682 C96.3826634,112.042007 95.3343405,113.158329 93.895,114.031 C92.4556595,114.903671 90.7386766,115.34 88.744,115.34 Z M93.368,104.596 C93.2546661,103.25866 92.761671,102.187671 91.889,101.383 C91.016329,100.578329 89.9566729,100.176 88.71,100.176 C88.0979969,100.176 87.5256693,100.283666 86.993,100.499 C86.4603307,100.714334 85.990002,101.014665 85.582,101.4 C85.173998,101.785335 84.839668,102.249997 84.579,102.794 C84.318332,103.338003 84.1653336,103.938663 84.12,104.596 L93.368,104.596 Z"/>
  </g>
</svg>
